Coordinates
version=1
nRows=4
nColumns=63
inDegrees=yes

Units are S.I. units (second, meters, Newtons, ...)
If the header above contains a line with 'inDegrees', this indicates whether rotational values are in degrees (yes) or radians (no).

endheader
time	pelvis_tilt	pelvis_list	pelvis_rotation	pelvis_tx	pelvis_ty	pelvis_tz	hip_flexion_r	hip_adduction_r	hip_rotation_r	knee_angle_r	knee_angle_r_beta	ankle_angle_r	subtalar_angle_r	mtp_angle_r	hip_flexion_l	hip_adduction_l	hip_rotation_l	knee_angle_l	knee_angle_l_beta	ankle_angle_l	subtalar_angle_l	mtp_angle_l	L5_S1_Flex_Ext	L5_S1_Lat_Bending	L5_S1_axial_rotation	L4_L5_Flex_Ext	L4_L5_Lat_Bending	L4_L5_axial_rotation	L3_L4_Flex_Ext	L3_L4_Lat_Bending	L3_L4_axial_rotation	L2_L3_Flex_Ext	L2_L3_Lat_Bending	L2_L3_axial_rotation	L1_L2_Flex_Ext	L1_L2_Lat_Bending	L1_L2_axial_rotation	L1_T12_Flex_Ext	L1_T12_Lat_Bending	L1_T12_axial_rotation	Abs_r3	Abs_r2	Abs_r1	Abs_t1	Abs_t2	neck_flexion	neck_bending	neck_rotation	arm_flex_r	arm_add_r	arm_rot_r	elbow_flex_r	pro_sup_r	wrist_flex_r	wrist_dev_r	arm_flex_l	arm_add_l	arm_rot_l	elbow_flex_l	pro_sup_l	wrist_flex_l	wrist_dev_l
      4.62711864	     -3.62768256	     -6.43449324	    102.85457632	      0.16552689	      0.95252658	      0.50139650	     -2.94200323	     -3.97199013	     -8.06950915	      6.84320070	      0.11943638	     20.81122832	      1.45309221	      0.00000000	      2.20033689	      2.85622545	     -4.93164126	     11.58234835	      0.20215011	     23.83884460	      8.30905190	      0.00000000	     -0.21074803	      0.24772921	      1.83470963	     -0.39138017	      0.32947985	      1.94937898	     -0.34623794	      0.60232881	      1.94937898	     -0.24086392	      0.60232881	      1.60537093	     -0.19570062	      0.50516941	      1.49070158	     -0.12042142	      0.38373255	      1.37603222	     -1.50535211	      2.80236241	     10.20410456	      0.00000000	      0.00000000	    -10.89739612	     16.10753107	      6.07304900	     30.47502121	      9.00722840	     24.89445267	    101.64211925	     85.71370515	     -0.20539463	      9.65242327	     11.93693320	    -19.89559206	     -4.55462243	    127.61795374	     82.66326073	    -13.45183542	      1.82914266
      4.64406780	     -3.41994775	     -6.45099126	    102.93785379	      0.16527949	      0.95234829	      0.50105680	     -2.91202011	     -3.79897451	     -8.80638195	      6.87526990	      0.11999610	     20.72472641	      2.17489214	      0.00000000	      2.18288495	      2.72629713	     -3.88355813	     11.50723029	      0.20083906	     23.72768558	      7.07480694	      0.00000000	     -0.20622222	      0.28021439	      1.76924278	     -0.38297529	      0.37268514	      1.87982045	     -0.33880249	      0.68131327	      1.87982045	     -0.23569138	      0.68131327	      1.54808743	     -0.19149796	      0.57141319	      1.43750976	     -0.11783538	      0.43405209	      1.32693208	     -1.47302471	      3.16984126	      9.83999755	      0.00000000	      0.00000000	    -10.56070460	     15.79710129	      6.00619816	     30.74895903	      8.96915958	     25.10664196	    101.26528362	     86.27931069	      0.67652553	      9.10569105	     11.54609191	    -19.86898676	     -4.96837417	    127.93844568	     83.63069806	    -13.14832368	      2.62217514
      4.66101695	     -3.18677576	     -6.35961220	    102.95288539	      0.16517867	      0.95225632	      0.50067132	     -2.97226220	     -3.55704446	     -9.20084479	      6.82204860	      0.11906721	     20.81052755	      2.63555980	      0.00000000	      2.08241237	      2.49482470	     -3.24424529	     11.43865068	      0.19964212	     23.80873317	      6.46674487	      0.00000000	     -0.21760598	      0.31507390	      1.74000968	     -0.40411606	      0.41904828	      1.84876028	     -0.35750486	      0.76607067	      1.84876028	     -0.24870187	      0.76607067	      1.52250847	     -0.20206891	      0.64249869	      1.41375786	     -0.12434006	      0.48804946	      1.30500726	     -1.55433774	      3.56417893	      9.67741182	      0.00000000	      0.00000000	    -10.06677118	     15.50870891	      5.66775563	     31.18810260	      8.62989881	     25.39931967	    101.06161493	     86.91538607	      1.00547599	      8.71361672	     11.09382172	    -19.81058844	     -5.07218903	    128.21643722	     83.07498119	    -13.30002366	      2.49369950
      4.67796610	     -3.00916892	     -6.24714047	    102.72385927	      0.16562979	      0.95220687	      0.50004065	     -3.07752663	     -3.24927389	     -7.77992962	      6.53514591	      0.11405981	     20.56150954	      0.84922729	      0.00000000	      1.89831246	      2.28787074	     -2.86982421	     11.24397176	      0.19624433	     23.93948573	      6.07366383	      0.00000000	     -0.22885950	      0.33785176	      1.77660021	     -0.42501497	      0.44934284	      1.88763773	     -0.37599327	      0.82145277	      1.88763773	     -0.26156352	      0.82145277	      1.55452519	     -0.21251893	      0.68894731	      1.44348767	     -0.13077032	      0.52333237	      1.33245016	     -1.63472050	      3.82184666	      9.88091741	      0.00000000	      0.00000000	     -9.65476656	     15.24377697	      5.06613472	     31.55551011	      8.23516218	     25.63251074	    101.01956764	     87.50571926	      0.90554791	      8.66403713	     10.54174118	    -19.79771487	     -4.92193031	    128.42037079	     80.83401159	    -13.69030685	      1.40964611
